{
  "streams": [
    {
      "index": 0,
      "codec_name": "h264",
      "codec_long_name": "H.264 / AVC / MPEG-4 AVC / MPEG-4 part 10",
      "profile": "High",
      "codec_type": "video",
      "codec_time_base": "1001/48000",
      "codec_tag_string": "[0][0][0][0]",
      "codec_tag": "0x0000",
      "width": 1280,
      "height": 720,
      "coded_width": 1280,
      "coded_height": 720,
      "has_b_frames": 2,
      "sample_aspect_ratio": "1:1",
      "display_aspect_ratio": "16:9",
      "pix_fmt": "yuv420p",
      "level": 41,
      "chroma_location": "left",
      "refs": 8,
      "is_avc": "1",
      "nal_length_size": "4",
      "r_frame_rate": "24000/1001",
      "avg_frame_rate": "24000/1001",
      "time_base": "1/1000",
      "start_pts": 0,
      "start_time": "0.000000",
      "bits_per_raw_sample": "8",
      "disposition": {
        "default": 1,
        "dub": 0,
        "original": 0,
        "comment": 0,
        "lyrics": 0,
        "karaoke": 0,
        "forced": 0,
        "hearing_impaired": 0,
        "visual_impaired": 0,
        "clean_effects": 0,
        "attached_pic": 0
      },
      "tags": {
        "language": "eng",
        "title": "CMCT团队荣誉出品"
      }
    },
    {
      "index": 1,
      "codec_name": "ac3",
      "codec_long_name": "ATSC A/52A (AC-3)",
      "codec_type": "audio",
      "codec_time_base": "1/48000",
      "codec_tag_string": "[0][0][0][0]",
      "codec_tag": "0x0000",
      "sample_fmt": "fltp",
      "sample_rate": "48000",
      "channels": 6,
      "channel_layout": "5.1(side)",
      "bits_per_sample": 0,
      "dmix_mode": "-1",
      "ltrt_cmixlev": "-1.000000",
      "ltrt_surmixlev": "-1.000000",
      "loro_cmixlev": "-1.000000",
      "loro_surmixlev": "-1.000000",
      "r_frame_rate": "0/0",
      "avg_frame_rate": "0/0",
      "time_base": "1/1000",
      "start_pts": 0,
      "start_time": "0.000000",
      "bit_rate": "640000",
      "disposition": {
        "default": 1,
        "dub": 0,
        "original": 0,
        "comment": 0,
        "lyrics": 0,
        "karaoke": 0,
        "forced": 0,
        "hearing_impaired": 0,
        "visual_impaired": 0,
        "clean_effects": 0,
        "attached_pic": 0
      },
      "tags": {
        "language": "eng",
        "title": "英语"
      }
    },
    {
      "index": 2,
      "codec_name": "ac3",
      "codec_long_name": "ATSC A/52A (AC-3)",
      "codec_type": "audio",
      "codec_time_base": "1/48000",
      "codec_tag_string": "[0][0][0][0]",
      "codec_tag": "0x0000",
      "sample_fmt": "fltp",
      "sample_rate": "48000",
      "channels": 6,
      "channel_layout": "5.1(side)",
      "bits_per_sample": 0,
      "dmix_mode": "-1",
      "ltrt_cmixlev": "-1.000000",
      "ltrt_surmixlev": "-1.000000",
      "loro_cmixlev": "-1.000000",
      "loro_surmixlev": "-1.000000",
      "r_frame_rate": "0/0",
      "avg_frame_rate": "0/0",
      "time_base": "1/1000",
      "start_pts": 0,
      "start_time": "0.000000",
      "bit_rate": "640000",
      "disposition": {
        "default": 0,
        "dub": 0,
        "original": 0,
        "comment": 0,
        "lyrics": 0,
        "karaoke": 0,
        "forced": 0,
        "hearing_impaired": 0,
        "visual_impaired": 0,
        "clean_effects": 0,
        "attached_pic": 0
      },
      "tags": {
        "language": "chi",
        "title": "央视国语"
      }
    },
    {
      "index": 3,
      "codec_name": "ass",
      "codec_long_name": "ASS (Advanced SubStation Alpha) subtitle",
      "codec_type": "subtitle",
      "codec_time_base": "1/1000",
      "codec_tag_string": "[0][0][0][0]",
      "codec_tag": "0x0000",
      "r_frame_rate": "0/0",
      "avg_frame_rate": "0/0",
      "time_base": "1/1000",
      "start_pts": 50,
      "start_time": "0.050000",
      "disposition": {
        "default": 1,
        "dub": 0,
        "original": 0,
        "comment": 0,
        "lyrics": 0,
        "karaoke": 0,
        "forced": 0,
        "hearing_impaired": 0,
        "visual_impaired": 0,
        "clean_effects": 0,
        "attached_pic": 0
      },
      "tags": {
        "title": "中上英下"
      }
    },
    {
      "index": 4,
      "codec_name": "ass",
      "codec_long_name": "ASS (Advanced SubStation Alpha) subtitle",
      "codec_type": "subtitle",
      "codec_time_base": "1/1000",
      "codec_tag_string": "[0][0][0][0]",
      "codec_tag": "0x0000",
      "r_frame_rate": "0/0",
      "avg_frame_rate": "0/0",
      "time_base": "1/1000",
      "start_pts": 50,
      "start_time": "0.050000",
      "disposition": {
        "default": 0,
        "dub": 0,
        "original": 0,
        "comment": 0,
        "lyrics": 0,
        "karaoke": 0,
        "forced": 0,
        "hearing_impaired": 0,
        "visual_impaired": 0,
        "clean_effects": 0,
        "attached_pic": 0
      },
      "tags": {
        "title": "英上中下"
      }
    },
    {
      "index": 5,
      "codec_name": "ass",
      "codec_long_name": "ASS (Advanced SubStation Alpha) subtitle",
      "codec_type": "subtitle",
      "codec_time_base": "1/1000",
      "codec_tag_string": "[0][0][0][0]",
      "codec_tag": "0x0000",
      "r_frame_rate": "0/0",
      "avg_frame_rate": "0/0",
      "time_base": "1/1000",
      "start_pts": 0,
      "start_time": "0.000000",
      "duration_ts": 7975008,
      "duration": "7975.008000",
      "disposition": {
        "default": 0,
        "dub": 0,
        "original": 0,
        "comment": 0,
        "lyrics": 0,
        "karaoke": 0,
        "forced": 0,
        "hearing_impaired": 0,
        "visual_impaired": 0,
        "clean_effects": 0,
        "attached_pic": 0
      },
      "tags": {
        "title": "央视国配"
      }
    },
    {
      "index": 6,
      "codec_name": "ass",
      "codec_long_name": "ASS (Advanced SubStation Alpha) subtitle",
      "codec_type": "subtitle",
      "codec_time_base": "1/1000",
      "codec_tag_string": "[0][0][0][0]",
      "codec_tag": "0x0000",
      "r_frame_rate": "0/0",
      "avg_frame_rate": "0/0",
      "time_base": "1/1000",
      "start_pts": 0,
      "start_time": "0.000000",
      "disposition": {
        "default": 0,
        "dub": 0,
        "original": 0,
        "comment": 0,
        "lyrics": 0,
        "karaoke": 0,
        "forced": 0,
        "hearing_impaired": 0,
        "visual_impaired": 0,
        "clean_effects": 0,
        "attached_pic": 0
      },
      "tags": {
        "title": "英文"
      }
    },
    {
      "index": 7,
      "codec_type": "attachment",
      "codec_time_base": "0/1",
      "codec_tag_string": "[0][0][0][0]",
      "codec_tag": "0x0000",
      "r_frame_rate": "0/0",
      "avg_frame_rate": "0/0",
      "time_base": "1/90000",
      "start_pts": 0,
      "start_time": "0.000000",
      "duration_ts": 717750720,
      "duration": "7975.008000",
      "disposition": {
        "default": 0,
        "dub": 0,
        "original": 0,
        "comment": 0,
        "lyrics": 0,
        "karaoke": 0,
        "forced": 0,
        "hearing_impaired": 0,
        "visual_impaired": 0,
        "clean_effects": 0,
        "attached_pic": 0
      },
      "tags": {
        "filename": "cronospro.otf",
        "mimetype": "application/x-truetype-font"
      }
    },
    {
      "index": 8,
      "codec_type": "attachment",
      "codec_time_base": "0/1",
      "codec_tag_string": "[0][0][0][0]",
      "codec_tag": "0x0000",
      "r_frame_rate": "0/0",
      "avg_frame_rate": "0/0",
      "time_base": "1/90000",
      "start_pts": 0,
      "start_time": "0.000000",
      "duration_ts": 717750720,
      "duration": "7975.008000",
      "disposition": {
        "default": 0,
        "dub": 0,
        "original": 0,
        "comment": 0,
        "lyrics": 0,
        "karaoke": 0,
        "forced": 0,
        "hearing_impaired": 0,
        "visual_impaired": 0,
        "clean_effects": 0,
        "attached_pic": 0
      },
      "tags": {
        "filename": "simhei.ttf",
        "mimetype": "application/x-truetype-font"
      }
    },
    {
      "index": 9,
      "codec_type": "attachment",
      "codec_time_base": "0/1",
      "codec_tag_string": "[0][0][0][0]",
      "codec_tag": "0x0000",
      "r_frame_rate": "0/0",
      "avg_frame_rate": "0/0",
      "time_base": "1/90000",
      "start_pts": 0,
      "start_time": "0.000000",
      "duration_ts": 717750720,
      "duration": "7975.008000",
      "disposition": {
        "default": 0,
        "dub": 0,
        "original": 0,
        "comment": 0,
        "lyrics": 0,
        "karaoke": 0,
        "forced": 0,
        "hearing_impaired": 0,
        "visual_impaired": 0,
        "clean_effects": 0,
        "attached_pic": 0
      },
      "tags": {
        "filename": "hwkaiti.ttf",
        "mimetype": "application/x-truetype-font"
      }
    }
  ],
  "format": {
    "filename": "/www/web/ffmpeg-demo/movie/example.mkv",
    "nb_streams": 10,
    "nb_programs": 0,
    "format_name": "matroska,webm",
    "format_long_name": "Matroska / WebM",
    "start_time": "0.000000",
    "duration": "7975.008000",
    "size": "4938159562",
    "bit_rate": "4953634",
    "probe_score": 100,
    "tags": {
      "encoder": "libebml v1.2.2 + libmatroska v1.3.0",
      "creation_time": "2016-08-23 10:19:18"
    }
  }
}